<svg width="38" height="37" viewBox="0 0 38 37" fill="none" xmlns="http://www.w3.org/2000/svg"><path d="M15.8516 0H22.0182L19.9627 18.5H17.9071L15.8516 0Z" fill="#C7B9FF"/><path d="M22.0195 37L15.8529 37L17.9084 18.5L19.964 18.5L22.0195 37Z" fill="#C7B9FF"/><path d="M8.03516 33.7617L3.67466 29.4012L18.2096 17.7732L19.6631 19.2267L8.03516 33.7617Z" fill="#C7B9FF"/><path d="M29.8369 3.2383L34.1974 7.59879L19.6624 19.2268L18.2089 17.7733L29.8369 3.2383Z" fill="#C7B9FF"/><path d="M3.67578 7.59872L8.03627 3.23823L19.6643 17.7732L18.2108 19.2267L3.67578 7.59872Z" fill="#C7B9FF"/><path d="M34.1992 29.4013L29.8387 33.7618L18.2107 19.2268L19.6642 17.7733L34.1992 29.4013Z" fill="#C7B9FF"/><path d="M0.4375 21.5833L0.4375 15.4167L18.9375 17.4722L18.9375 19.5278L0.4375 21.5833Z" fill="#C7B9FF"/><path d="M37.4375 15.4167L37.4375 21.5834L18.9375 19.5279L18.9375 17.4723L37.4375 15.4167Z" fill="#C7B9FF"/></svg>